PathFileType	4	(X/Y/Z)	28_1_52_p1_0-254_filt_butterworth.trc
DataRate	CameraRate	NumFrames	NumMarkers	Units	OrigDataRate	OrigDataStartFrame	OrigNumFrames
60.0	60.0	7	27	m	60.0	0	254
Frame#	Time	RHip			RKnee			RAnkle			RBigToe			RSmallToe			RHeel			LHip			LKnee			LAnkle			LBigToe			LSmallToe			LHeel			Neck			Head			Nose			RShoulder			RElbow			RWrist			RThumb			RIndex			RPinky			LShoulder			LElbow			LWrist			LThumb			LIndex			LPinky			
		X1	Y1	Z1	X2	Y2	Z2	X3	Y3	Z3	X4	Y4	Z4	X5	Y5	Z5	X6	Y6	Z6	X7	Y7	Z7	X8	Y8	Z8	X9	Y9	Z9	X10	Y10	Z10	X11	Y11	Z11	X12	Y12	Z12	X13	Y13	Z13	X14	Y14	Z14	X15	Y15	Z15	X16	Y16	Z16	X17	Y17	Z17	X18	Y18	Z18	X19	Y19	Z19	X20	Y20	Z20	X21	Y21	Z21	X22	Y22	Z22	X23	Y23	Z23	X24	Y24	Z24	X25	Y25	Z25	X26	Y26	Z26	X27	Y27	Z27	
0	0.0	0.21985881347683378	0.5874995014591233	0.9238787828930234	0.21843653017359857	0.8112032495531388	1.3309601924203756	0.21000490361191643	1.042372974072735	1.7288796787992387	0.18634700588672112	0.8950672729359587	1.7992080800766241	0.255055400561969	0.8916618197211333	1.7924379156420727	0.19590000081087297	1.175956003200142	1.7853199260126125	-0.003632398562939845	0.607258317646323	0.9301081969254128	0.026455984896189447	0.789445963668331	1.327180921969888	0.01985320642382818	1.0646101452759165	1.739017472224217	0.027708629596681907	0.8814722706177021	1.7971090207354956	-0.032390488095512114	0.9255443078659299	1.7968415086258935	0.043321740166064215	1.1581209817825122	1.7902427453167347	0.08738040400223679	0.3950435327500348	0.3156080418672452	0.08468223034677524	0.2411484370331475	0.10684729511760772	0.08257598574020773	0.2054189024899785	0.25616467944496546	0.2697549261821782	0.40105227709484537	0.41101550188057717	0.29951325189529665	0.4651212408634676	0.6820828720557822	0.14278638517495917	0.3909593790076122	0.9060546570841161	0.08399754865300266	0.4081206807457499	0.9698360882990632	0.07224161781392133	0.43411540160063355	0.9962343881377813	0.08050434742831011	0.4359794592299081	0.9996865440313702	-0.09514834884562083	0.4269036553114083	0.4032280484161749	-0.1235942872549987	0.4905872189229141	0.6941878547582863	0.039322795738521946	0.363961817289235	0.8811926340873046	0.13304791550318903	0.37490870401454035	0.9415853985061508	0.1366442652802017	0.3724937731850624	0.9679541328021461	0.089443387969991	0.41370579626737075	1.0119323105758369
1	0.0166666666666666	0.21955686469724914	0.5866940328842698	0.922915352968665	0.21553173742075044	0.8201547596021367	1.3293331140742255	0.20723441855753452	1.0317566783037173	1.7270188807782465	0.18620219287505682	0.8955824863100691	1.7996818261504544	0.2548593333603512	0.8913733185294721	1.7926657013661609	0.19471001530568927	1.1757468954654398	1.785365225896998	-0.003752130800286595	0.6072586593611906	0.9292048007879588	0.023723477111698824	0.7983066661506258	1.3280688837794168	0.021267610560649994	1.065568112870391	1.7395507196050235	0.02789570051848924	0.8814442879059312	1.7962729622524447	-0.029231180113793515	0.924959052765694	1.7947828626253455	0.042702296726646945	1.156370847795135	1.7874225371976769	0.0873705459270411	0.39511272821316024	0.31561482002298447	0.08462102380777164	0.2413100515782879	0.10676916393545388	0.08257475873999637	0.2054342105601755	0.25618515902134664	0.2698920102819183	0.40135898017494187	0.4121971609738289	0.2995937019326476	0.46498399478004604	0.684409435856964	0.14171946462449247	0.39560222926274374	0.9059744801568783	0.08524575268784455	0.4100500501498349	0.971323069228358	0.07231772846196909	0.4325556942522961	0.9954002578310106	0.0781007224957527	0.4428941112012419	0.9983334768708267	-0.09517075830029806	0.42690302295637217	0.40325524396994206	-0.12365317759765185	0.49047909482585894	0.6941063774592248	0.03933260797488647	0.3644310435369826	0.8815877271431072	0.13559831284188723	0.37449769262373356	0.9406914120766041	0.13873582722511432	0.3773024645285785	0.9694404726800234	0.09238415648651177	0.4219507118679026	1.0116124664322066
2	0.0333333333333333	0.21931835850331297	0.5859816650245162	0.9224956876515644	0.2138439280443056	0.8251572995152356	1.3282778240573907	0.20551637696566613	1.0251856859814705	1.725874948472538	0.1860266046591167	0.8955376701359955	1.7998822057825878	0.2547730697287451	0.8912858015682121	1.7928424894455033	0.19461447098154647	1.1757271747217724	1.785394740090679	-0.0037672078582217396	0.6073645606495576	0.9291521295986849	0.022826764904126814	0.8009638616993964	1.32856493494115	0.022152016126058844	1.0665792430867773	1.7407020153036596	0.027900728616226587	0.8816521213911767	1.7962893658249999	-0.027498130979968765	0.9247123222872077	1.794227950751635	0.04235304325284214	1.1553097383208728	1.7856932269487606	0.08736533199488694	0.39515119658431586	0.3156211906608921	0.08459714353608717	0.24139464072132116	0.10672576067886148	0.08259276642473774	0.20549599519496856	0.25618257816454	0.2700129996603897	0.40162446345244474	0.4133312599300517	0.29973312905388855	0.465158052873778	0.6858491499031905	0.14055963565411755	0.3998603278937689	0.9054303475103789	0.0846759970108817	0.41023691946289553	0.971698040338875	0.07179317776656463	0.4328449463311645	0.993989682504732	0.0765040284107088	0.44680024682772335	0.9967333732392738	-0.09520968203942602	0.42689587346957086	0.40328639554011203	-0.12372345544541595	0.4904098798673845	0.6940533535607034	0.03951416476654964	0.36508825190289074	0.8824185095028211	0.13707321405588194	0.3746903001186279	0.9405554405534314	0.13978257016609275	0.3823891004918172	0.9705455068814417	0.09483031273402234	0.42901190159014035	1.0112705899133536
3	0.05	0.21920433644324527	0.5855444571229665	0.9227936094614656	0.2137274031092429	0.8248647381989884	1.3278747748992503	0.20506778948317242	1.023470124011651	1.7255771244766522	0.18555625894938862	0.8938629660856441	1.7996186320396494	0.2546753337751601	0.8909971613617319	1.7928651250770327	0.19527118331535104	1.1758485328294477	1.7854263364949903	-0.00368854220359716	0.607563102150571	0.9299596572923549	0.02371554233472587	0.7977122169704187	1.3288461435955679	0.022675435992115626	1.067626205093986	1.7422919291573962	0.02778419083626074	0.8819542447579212	1.7968677630265957	-0.027251914932048777	0.9249751750880038	1.7950922012906185	0.04235764139921444	1.1552337642484214	1.7851595745570559	0.08736476837748008	0.3951636446913237	0.3156245822468529	0.08460628185955218	0.2413998790073905	0.10671783325863561	0.08265304160914344	0.2056633764331771	0.25613507526908397	0.27008849435232934	0.40178447545505586	0.4141282196205549	0.3002121067914286	0.46644409054166563	0.6862643740630607	0.13926842576631493	0.4026530523133218	0.9042501292559031	0.0821772279255899	0.41152345547312674	0.9708992072172526	0.07026066774546728	0.43677996071421404	0.9920538972641799	0.0758334112498521	0.4476097471864048	0.9949961319942244	-0.09526362463234461	0.42687458084932955	0.4033192161577411	-0.12379181386701432	0.4903951196716918	0.6940490848152813	0.039839808499957226	0.36582666618239246	0.8835374172531605	0.13701646602164258	0.3752983291763871	0.9409853781942501	0.13954409843137983	0.3866216132219368	0.9715353194138567	0.09653650317271438	0.43418480729839815	1.0106263082611373
4	0.0666666666666666	0.21919157332222042	0.5853949307238807	0.9234778992960119	0.21482286216188864	0.8204219465007758	1.3280101151162558	0.20563780856125072	1.0255887964729502	1.7259267508680967	0.18452935205205678	0.8897817218112225	1.7989297292409807	0.2541987621820942	0.8893586628015024	1.7925488396535125	0.1958257235169193	1.175970952484672	1.7854744915699652	-0.003592564450233742	0.6077599545812962	0.931219179569327	0.025021659818883414	0.79335763830476	1.3294351449661872	0.02306264661391686	1.068441750419212	1.7435630188549895	0.027696092534157765	0.8821159576105008	1.797309021105984	-0.027602694813829296	0.9255370992400753	1.7961860964726504	0.042583677045412896	1.1558702757670651	1.7852443909128148	0.08736506765520465	0.39516861693665967	0.31562534442213874	0.08461877944267451	0.24137682629693852	0.10672479190878482	0.08274657687995624	0.20590981506580014	0.25605439875868263	0.2701127587161398	0.4018303552649197	0.41444271639524105	0.30130341574457997	0.4694997463713728	0.6859789610777551	0.13775959247925113	0.40360001100468523	0.9028045044842625	0.07921192537084486	0.4179343935968606	0.9697640866013255	0.06791271918918397	0.4441443352837153	0.9901758930271646	0.07572703018037803	0.4469744806421623	0.9934402040673352	-0.0953252620034733	0.42683154562498166	0.40334893546981576	-0.12383556567900204	0.4904291640821603	0.6940949678074894	0.040050391629333174	0.36662575251129614	0.8843777081588016	0.13559363011532938	0.3757377931129335	0.9413837756471236	0.13812568436871472	0.38896235797166473	0.9726275957620684	0.09744745944073324	0.43695406686568045	1.009195795996272
5	0.0833333333333333	0.21921462235192596	0.5853983489055691	0.9243480393419501	0.21640934291085237	0.8146451901177175	1.3287060861311764	0.20698949784967174	1.0305918919909032	1.7267548531571284	0.18318420616364303	0.8844657420895425	1.798200493094994	0.2530743626282138	0.8854920369996137	1.79177080118966	0.19602246292079123	1.176035465997952	1.785521867771067	-0.0035354141908581042	0.6078711597283916	0.9324988441999662	0.025793928925450575	0.7910834119375341	1.3304279110906303	0.023281267172574026	1.0688135240714605	1.744135466828319	0.02768225874531264	0.8820939582576722	1.7974029887121534	-0.027834013987677715	0.9259316105345052	1.7967292630861784	0.04281980835348387	1.1566450907520585	1.7854544919559845	0.08736379248012315	0.3951731401250179	0.31562705910366895	0.08461635282139386	0.24136389171517653	0.10672998139973469	0.08275786737641479	0.20589626046451542	0.2560601841141959	0.2701147449601743	0.4018277846499573	0.41445661200675615	0.30276048926543797	0.4735256358227532	0.6852622574574648	0.13621336803411432	0.40352563069639547	0.9017288145057255	0.07732019589537548	0.42819872714954765	0.9690288331958522	0.06566285632741467	0.45184116372357686	0.9889420803398166	0.07585324492062985	0.4461052038537342	0.9921973161485063	-0.09538080168027151	0.4267522326824699	0.40337328355772284	-0.12385152946684994	0.49049815882932757	0.6941707766302172	0.03979607304995526	0.36817733201735603	0.8846236476959823	0.13359385757891215	0.37580189029105765	0.9414995762699472	0.13592961180491486	0.38994913555688077	0.973523808113316	0.0977246672226577	0.4372370516584332	1.0067815307484607
6	0.1	0.21929201451695723	0.5855663451453124	0.9256282738825958	0.21767934123440003	0.8104388722424699	1.32977519382964	0.20862771920270362	1.0366396291822184	1.7277631066420502	0.18211417917929335	0.8803997754916681	1.7977307546640573	0.2515934399993472	0.8804029493985142	1.7907388794558265	0.1960208029670222	1.1760319071661804	1.7855481997471343	-0.0035293253004899804	0.6078651018967508	0.9333678664612938	0.025998462338613332	0.7907152884449332	1.331319918006137	0.02336789704945462	1.0688348364495455	1.7442699700627515	0.027699959292285876	0.8819335807144694	1.7973040208482916	-0.027765071180846177	0.9259227392297757	1.7967835571998636	0.04296505964718164	1.157269199967423	1.7856181363041825	0.08736155632751419	0.3951787404673759	0.31563114121300473	0.08460161254385376	0.24136459976353142	0.10672698589172658	0.08242434314649212	0.20484539004472915	0.25642276244418144	0.2701201223097179	0.4018386782973385	0.41439545304885567	0.3039345465543848	0.47669275160700186	0.6844045806476731	0.13513067035372847	0.40330358940679767	0.9012822622025083	0.07665756995731669	0.43598533147265117	0.968837694634439	0.06438817185962073	0.45673168085176374	0.9884859858002073	0.07596725051972161	0.4456937509259454	0.9910798904054052	-0.09539460715432861	0.4266439346457172	0.4033838677756302	-0.1238562922494987	0.4905846279708342	0.6942464171350409	0.038906344488598976	0.37127524081907337	0.8844247241149273	0.1322147920472424	0.37595666227710534	0.9414365779807712	0.13391657585223868	0.3912327903624571	0.9739477073175214	0.0974831836953519	0.43540562103397923	1.003960907108369
